<?xml version="1.0" encoding="UTF-8" standalone="no"?>
<!DOCTYPE svg PUBLIC "-//W3C//DTD SVG 1.1//EN"
 "http://www.w3.org/Graphics/SVG/1.1/DTD/svg11.dtd">
<!-- Generated by graphviz version 2.38.0 (20140413.2041)
 -->
<!-- Title: PROV Pages: 1 -->
<svg width="258pt" height="543pt"
 viewBox="0.00 0.00 258.00 543.00" xmlns="http://www.w3.org/2000/svg" xmlns:xlink="http://www.w3.org/1999/xlink">
<g id="graph0" class="graph" transform="scale(1 1) rotate(0) translate(4 539)">
<title>PROV</title>
<polygon fill="white" stroke="none" points="-4,4 -4,-539 254,-539 254,4 -4,4"/>
<g id="clust1" class="cluster"><title>clusterhttp://openprovenance.org/vargen#templ_image</title>
<g id="a_clust1"><a xlink:href="http://openprovenance.org/vargen#templ_image" xlink:title="templ_image">
<polygon fill="none" stroke="black" points="8,-8 8,-527 242,-527 242,-8 8,-8"/>
<text text-anchor="middle" x="125" y="-15.8" font-family="Times,serif" font-size="14.00">templ_image</text>
</a>
</g>
</g>
<!-- http://openprovenance.org/var#acquisition -->
<g id="node1" class="node"><title>http://openprovenance.org/var#acquisition</title>
<g id="a_node1"><a xlink:href="http://openprovenance.org/var#acquisition" xlink:title="acquisition">
<polygon fill="#9fb1fc" stroke="#0000ff" points="98,-271 22,-271 22,-235 98,-235 98,-271"/>
<text text-anchor="middle" x="60" y="-249.3" font-family="Times,serif" font-size="14.00">acquisition</text>
</a>
</g>
</g>
<!-- http://openprovenance.org/var#view -->
<g id="node5" class="node"><title>http://openprovenance.org/var#view</title>
<g id="a_node5"><a xlink:href="http://openprovenance.org/var#view" xlink:title="view">
<ellipse fill="#fffc87" stroke="#808080" cx="63" cy="-390" rx="27.8951" ry="18"/>
<text text-anchor="middle" x="63" y="-386.3" font-family="Times,serif" font-size="14.00">view</text>
</a>
</g>
</g>
<!-- http://openprovenance.org/var#acquisition&#45;&gt;http://openprovenance.org/var#view -->
<g id="edge6" class="edge"><title>http://openprovenance.org/var#acquisition&#45;&gt;http://openprovenance.org/var#view</title>
<path fill="none" stroke="black" d="M60.38,-271.098C60.8866,-293.897 61.7894,-334.521 62.3914,-361.614"/>
<polygon fill="black" stroke="black" points="58.8923,-361.695 62.6137,-371.615 65.8905,-361.539 58.8923,-361.695"/>
<text text-anchor="middle" x="73.5338" y="-276.407" font-family="Times,serif" font-size="8.00">use</text>
</g>
<!-- &#45;attrs0 -->
<g id="node2" class="node"><title>&#45;attrs0</title>
<polygon fill="none" stroke="gray" points="228,-173 98,-173 98,-111 234,-111 234,-167 228,-173"/>
<polyline fill="none" stroke="gray" points="228,-173 228,-167 "/>
<polyline fill="none" stroke="gray" points="234,-167 228,-167 "/>
<text text-anchor="start" x="108" y="-159" font-family="Times,serif" font-size="10.00">value:</text>
<text text-anchor="start" x="136" y="-159" font-family="Times,serif" font-size="10.00">var:acquisition_date</text>
<text text-anchor="start" x="108" y="-146" font-family="Times,serif" font-size="10.00">value:</text>
<text text-anchor="start" x="136" y="-146" font-family="Times,serif" font-size="10.00">var:resolution</text>
<text text-anchor="start" x="108" y="-133" font-family="Times,serif" font-size="10.00">value:</text>
<text text-anchor="start" x="136" y="-133" font-family="Times,serif" font-size="10.00">var:colour_depth</text>
<text text-anchor="start" x="108" y="-120" font-family="Times,serif" font-size="10.00">value:</text>
<text text-anchor="start" x="136" y="-120" font-family="Times,serif" font-size="10.00">var:compression_rate</text>
</g>
<!-- &#45;attrs0&#45;&gt;http://openprovenance.org/var#acquisition -->
<g id="edge1" class="edge"><title>&#45;attrs0&#45;&gt;http://openprovenance.org/var#acquisition</title>
<path fill="none" stroke="gray" stroke-dasharray="5,2" d="M136.754,-173.073C117.39,-192.986 92.6912,-218.384 76.6189,-234.911"/>
</g>
<!-- http://openprovenance.org/var#camera -->
<g id="node3" class="node"><title>http://openprovenance.org/var#camera</title>
<g id="a_node3"><a xlink:href="http://openprovenance.org/var#camera" xlink:title="camera">
<ellipse fill="#fffc87" stroke="#808080" cx="116" cy="-501" rx="36.2938" ry="18"/>
<text text-anchor="middle" x="116" y="-497.3" font-family="Times,serif" font-size="14.00">camera</text>
</a>
</g>
</g>
<!-- &#45;attrs1 -->
<g id="node4" class="node"><title>&#45;attrs1</title>
<polygon fill="none" stroke="gray" points="223.5,-447 108.5,-447 108.5,-333 229.5,-333 229.5,-441 223.5,-447"/>
<polyline fill="none" stroke="gray" points="223.5,-447 223.5,-441 "/>
<polyline fill="none" stroke="gray" points="229.5,-441 223.5,-441 "/>
<text text-anchor="start" x="119" y="-433" font-family="Times,serif" font-size="10.00">value:</text>
<text text-anchor="start" x="147" y="-433" font-family="Times,serif" font-size="10.00">var:camera_id</text>
<text text-anchor="start" x="119" y="-420" font-family="Times,serif" font-size="10.00">value:</text>
<text text-anchor="start" x="147" y="-420" font-family="Times,serif" font-size="10.00">var:camera_name</text>
<text text-anchor="start" x="119" y="-407" font-family="Times,serif" font-size="10.00">value:</text>
<text text-anchor="start" x="147" y="-407" font-family="Times,serif" font-size="10.00">var:lens_prop</text>
<text text-anchor="start" x="119" y="-394" font-family="Times,serif" font-size="10.00">value:</text>
<text text-anchor="start" x="147" y="-394" font-family="Times,serif" font-size="10.00">var:matrix_prop</text>
<text text-anchor="start" x="119" y="-381" font-family="Times,serif" font-size="10.00">value:</text>
<text text-anchor="start" x="147" y="-381" font-family="Times,serif" font-size="10.00">var:location</text>
<text text-anchor="start" x="119" y="-368" font-family="Times,serif" font-size="10.00">value:</text>
<text text-anchor="start" x="147" y="-368" font-family="Times,serif" font-size="10.00">var:install_time</text>
<text text-anchor="start" x="119" y="-355" font-family="Times,serif" font-size="10.00">value:</text>
<text text-anchor="start" x="147" y="-355" font-family="Times,serif" font-size="10.00">var:install_height</text>
<text text-anchor="start" x="119" y="-342" font-family="Times,serif" font-size="10.00">value:</text>
<text text-anchor="start" x="147" y="-342" font-family="Times,serif" font-size="10.00">var:orientation</text>
</g>
<!-- &#45;attrs1&#45;&gt;http://openprovenance.org/var#camera -->
<g id="edge2" class="edge"><title>&#45;attrs1&#45;&gt;http://openprovenance.org/var#camera</title>
<path fill="none" stroke="gray" stroke-dasharray="5,2" d="M141.724,-447.096C135.332,-460.242 129.001,-473.263 124.219,-483.098"/>
</g>
<!-- http://openprovenance.org/var#view&#45;&gt;http://openprovenance.org/var#camera -->
<g id="edge5" class="edge"><title>http://openprovenance.org/var#view&#45;&gt;http://openprovenance.org/var#camera</title>
<path fill="none" stroke="black" d="M71.0496,-407.555C79.6492,-425.241 93.3952,-453.511 103.425,-474.137"/>
<polygon fill="black" stroke="black" points="100.354,-475.827 107.875,-483.289 106.649,-472.766 100.354,-475.827"/>
<text text-anchor="middle" x="86.0117" y="-406.719" font-family="Times,serif" font-size="8.00">der</text>
</g>
<!-- &#45;attrs2 -->
<g id="node6" class="node"><title>&#45;attrs2</title>
<polygon fill="none" stroke="gray" points="197.5,-297 116.5,-297 116.5,-209 203.5,-209 203.5,-291 197.5,-297"/>
<polyline fill="none" stroke="gray" points="197.5,-297 197.5,-291 "/>
<polyline fill="none" stroke="gray" points="203.5,-291 197.5,-291 "/>
<text text-anchor="start" x="127" y="-283" font-family="Times,serif" font-size="10.00">value:</text>
<text text-anchor="start" x="155" y="-283" font-family="Times,serif" font-size="10.00">var:x</text>
<text text-anchor="start" x="127" y="-270" font-family="Times,serif" font-size="10.00">value:</text>
<text text-anchor="start" x="155" y="-270" font-family="Times,serif" font-size="10.00">var:y</text>
<text text-anchor="start" x="127" y="-257" font-family="Times,serif" font-size="10.00">value:</text>
<text text-anchor="start" x="155" y="-257" font-family="Times,serif" font-size="10.00">var:pitch</text>
<text text-anchor="start" x="127" y="-244" font-family="Times,serif" font-size="10.00">value:</text>
<text text-anchor="start" x="155" y="-244" font-family="Times,serif" font-size="10.00">var:tilt</text>
<text text-anchor="start" x="127" y="-231" font-family="Times,serif" font-size="10.00">value:</text>
<text text-anchor="start" x="155" y="-231" font-family="Times,serif" font-size="10.00">var:yaw</text>
<text text-anchor="start" x="127" y="-218" font-family="Times,serif" font-size="10.00">value:</text>
<text text-anchor="start" x="155" y="-218" font-family="Times,serif" font-size="10.00">var:zoom</text>
</g>
<!-- &#45;attrs2&#45;&gt;http://openprovenance.org/var#view -->
<g id="edge3" class="edge"><title>&#45;attrs2&#45;&gt;http://openprovenance.org/var#view</title>
<path fill="none" stroke="gray" stroke-dasharray="5,2" d="M126.472,-297.082C117.703,-308.636 108.367,-321.198 100,-333 90.5649,-346.308 80.3838,-361.809 73.0943,-373.124"/>
</g>
<!-- http://openprovenance.org/var#image -->
<g id="node7" class="node"><title>http://openprovenance.org/var#image</title>
<g id="a_node7"><a xlink:href="http://openprovenance.org/var#image" xlink:title="image">
<ellipse fill="#fffc87" stroke="#808080" cx="48" cy="-142" rx="32.4942" ry="18"/>
<text text-anchor="middle" x="48" y="-138.3" font-family="Times,serif" font-size="14.00">image</text>
</a>
</g>
</g>
<!-- http://openprovenance.org/var#image&#45;&gt;http://openprovenance.org/var#acquisition -->
<g id="edge7" class="edge"><title>http://openprovenance.org/var#image&#45;&gt;http://openprovenance.org/var#acquisition</title>
<path fill="none" stroke="black" d="M49.875,-160.031C51.7748,-177.288 54.7439,-204.257 56.9766,-224.538"/>
<polygon fill="black" stroke="black" points="53.5252,-225.172 58.0986,-234.729 60.4832,-224.406 53.5252,-225.172"/>
<text text-anchor="middle" x="63.6081" y="-164.165" font-family="Times,serif" font-size="8.00">gen</text>
</g>
<!-- &#45;attrs3 -->
<g id="node8" class="node"><title>&#45;attrs3</title>
<polygon fill="none" stroke="gray" points="140,-75 16,-75 16,-39 146,-39 146,-69 140,-75"/>
<polyline fill="none" stroke="gray" points="140,-75 140,-69 "/>
<polyline fill="none" stroke="gray" points="146,-69 140,-69 "/>
<text text-anchor="start" x="26" y="-54" font-family="Times,serif" font-size="10.00">value:</text>
<text text-anchor="start" x="54" y="-54" font-family="Times,serif" font-size="10.00">var:image_filename</text>
</g>
<!-- &#45;attrs3&#45;&gt;http://openprovenance.org/var#image -->
<g id="edge4" class="edge"><title>&#45;attrs3&#45;&gt;http://openprovenance.org/var#image</title>
<path fill="none" stroke="gray" stroke-dasharray="5,2" d="M74.1624,-75.1977C68.461,-89.5375 60.3832,-109.854 54.716,-124.108"/>
</g>
</g>
</svg>
