<?xml version="1.0" encoding="UTF-8" standalone="no"?>
<!DOCTYPE svg PUBLIC "-//W3C//DTD SVG 1.1//EN"
 "http://www.w3.org/Graphics/SVG/1.1/DTD/svg11.dtd">
<!-- Generated by graphviz version 2.38.0 (20140413.2041)
 -->
<!-- Title: PROV Pages: 1 -->
<svg width="1152pt" height="521pt"
 viewBox="0.00 0.00 1152.00 521.06" xmlns="http://www.w3.org/2000/svg" xmlns:xlink="http://www.w3.org/1999/xlink">
<g id="graph0" class="graph" transform="scale(0.915739 0.915739) rotate(0) translate(4 565)">
<title>PROV</title>
<polygon fill="white" stroke="none" points="-4,4 -4,-565 1254,-565 1254,4 -4,4"/>
<g id="clust1" class="cluster"><title>clusterurn:uuid:5504413f&#45;d4e8&#45;41ba&#45;a95b&#45;ebedb026628a</title>
<g id="a_clust1"><a xlink:href="urn:uuid:5504413f-d4e8-41ba-a95b-ebedb026628a" xlink:title="5504413f&#45;d4e8&#45;41ba&#45;a95b&#45;ebedb026628a">
<polygon fill="none" stroke="black" points="338,-47 338,-553 582,-553 582,-47 338,-47"/>
<text text-anchor="middle" x="460" y="-54.8" font-family="Times,serif" font-size="14.00">5504413f&#45;d4e8&#45;41ba&#45;a95b&#45;ebedb026628a</text>
</a>
</g>
</g>
<g id="clust2" class="cluster"><title>clusterurn:uuid:04f617f9&#45;7ae3&#45;4581&#45;a0eb&#45;e1061f70a950</title>
<g id="a_clust2"><a xlink:href="urn:uuid:04f617f9-7ae3-4581-a0eb-e1061f70a950" xlink:title="04f617f9&#45;7ae3&#45;4581&#45;a0eb&#45;e1061f70a950">
<polygon fill="none" stroke="black" points="590,-8 590,-331 912,-331 912,-8 590,-8"/>
<text text-anchor="middle" x="751" y="-15.8" font-family="Times,serif" font-size="14.00">04f617f9&#45;7ae3&#45;4581&#45;a0eb&#45;e1061f70a950</text>
</a>
</g>
</g>
<g id="clust3" class="cluster"><title>clusterurn:uuid:a24091b9&#45;49ce&#45;4cf9&#45;8c61&#45;1b97759860ae</title>
<g id="a_clust3"><a xlink:href="urn:uuid:a24091b9-49ce-4cf9-8c61-1b97759860ae" xlink:title="a24091b9&#45;49ce&#45;4cf9&#45;8c61&#45;1b97759860ae">
<polygon fill="none" stroke="black" points="920,-8 920,-331 1242,-331 1242,-8 920,-8"/>
<text text-anchor="middle" x="1081" y="-15.8" font-family="Times,serif" font-size="14.00">a24091b9&#45;49ce&#45;4cf9&#45;8c61&#45;1b97759860ae</text>
</a>
</g>
</g>
<g id="clust4" class="cluster"><title>clusterurn:uuid:51b5a207&#45;8c75&#45;4a17&#45;8328&#45;09ec584cccdf</title>
<g id="a_clust4"><a xlink:href="urn:uuid:51b5a207-8c75-4a17-8328-09ec584cccdf" xlink:title="51b5a207&#45;8c75&#45;4a17&#45;8328&#45;09ec584cccdf">
<polygon fill="none" stroke="black" points="8,-8 8,-331 330,-331 330,-8 8,-8"/>
<text text-anchor="middle" x="169" y="-15.8" font-family="Times,serif" font-size="14.00">51b5a207&#45;8c75&#45;4a17&#45;8328&#45;09ec584cccdf</text>
</a>
</g>
</g>
<!-- http://urbanobservatory.ac.uk/Acquisition2 -->
<g id="node1" class="node"><title>http://urbanobservatory.ac.uk/Acquisition2</title>
<g id="a_node1"><a xlink:href="http://urbanobservatory.ac.uk/Acquisition2" xlink:title="Acquisition2">
<polygon fill="#9fb1fc" stroke="#0000ff" points="488,-323 402,-323 402,-287 488,-287 488,-323"/>
<text text-anchor="middle" x="445" y="-301.3" font-family="Times,serif" font-size="14.00">Acquisition2</text>
</a>
</g>
</g>
<!-- http://urbanobservatory.ac.uk/View1 -->
<g id="node3" class="node"><title>http://urbanobservatory.ac.uk/View1</title>
<g id="a_node3"><a xlink:href="http://urbanobservatory.ac.uk/View1" xlink:title="View1">
<ellipse fill="#fffc87" stroke="#808080" cx="531" cy="-416" rx="34.394" ry="18"/>
<text text-anchor="middle" x="531" y="-412.3" font-family="Times,serif" font-size="14.00">View1</text>
</a>
</g>
</g>
<!-- http://urbanobservatory.ac.uk/Acquisition2&#45;&gt;http://urbanobservatory.ac.uk/View1 -->
<g id="edge5" class="edge"><title>http://urbanobservatory.ac.uk/Acquisition2&#45;&gt;http://urbanobservatory.ac.uk/View1</title>
<path fill="none" stroke="black" d="M459.06,-323.092C467.517,-333.431 478.456,-346.909 488,-359 496.106,-369.269 504.928,-380.71 512.459,-390.56"/>
<polygon fill="black" stroke="black" points="509.848,-392.908 518.695,-398.738 515.414,-388.663 509.848,-392.908"/>
<text text-anchor="middle" x="473.865" y="-318.781" font-family="Times,serif" font-size="8.00">use</text>
</g>
<!-- &#45;attrs0 -->
<g id="node2" class="node"><title>&#45;attrs0</title>
<polygon fill="none" stroke="gray" points="565,-251 449,-251 449,-189 571,-189 571,-245 565,-251"/>
<polyline fill="none" stroke="gray" points="565,-251 565,-245 "/>
<polyline fill="none" stroke="gray" points="571,-245 565,-245 "/>
<text text-anchor="start" x="459" y="-237" font-family="Times,serif" font-size="10.00">value:</text>
<text text-anchor="start" x="487" y="-237" font-family="Times,serif" font-size="10.00">20180101120000</text>
<text text-anchor="start" x="459" y="-224" font-family="Times,serif" font-size="10.00">value:</text>
<text text-anchor="start" x="487" y="-224" font-family="Times,serif" font-size="10.00">1024x768</text>
<text text-anchor="start" x="459" y="-211" font-family="Times,serif" font-size="10.00">value:</text>
<text text-anchor="start" x="487" y="-211" font-family="Times,serif" font-size="10.00">256</text>
<text text-anchor="start" x="459" y="-198" font-family="Times,serif" font-size="10.00">value:</text>
<text text-anchor="start" x="487" y="-198" font-family="Times,serif" font-size="10.00">0.9</text>
</g>
<!-- &#45;attrs0&#45;&gt;http://urbanobservatory.ac.uk/Acquisition2 -->
<g id="edge1" class="edge"><title>&#45;attrs0&#45;&gt;http://urbanobservatory.ac.uk/Acquisition2</title>
<path fill="none" stroke="gray" stroke-dasharray="5,2" d="M486.165,-251.435C476.89,-263.279 466.599,-276.42 458.626,-286.6"/>
</g>
<!-- http://urbanobservatory.ac.uk/Camera1 -->
<g id="node7" class="node"><title>http://urbanobservatory.ac.uk/Camera1</title>
<g id="a_node7"><a xlink:href="http://urbanobservatory.ac.uk/Camera1" xlink:title="Camera1">
<ellipse fill="#fffc87" stroke="#808080" cx="531" cy="-527" rx="42.7926" ry="18"/>
<text text-anchor="middle" x="531" y="-523.3" font-family="Times,serif" font-size="14.00">Camera1</text>
</a>
</g>
</g>
<!-- http://urbanobservatory.ac.uk/View1&#45;&gt;http://urbanobservatory.ac.uk/Camera1 -->
<g id="edge7" class="edge"><title>http://urbanobservatory.ac.uk/View1&#45;&gt;http://urbanobservatory.ac.uk/Camera1</title>
<path fill="none" stroke="black" d="M516.298,-432.617C510.003,-450.242 509.065,-479.189 513.484,-500.188"/>
<polygon fill="black" stroke="black" points="510.169,-501.335 516.183,-510.057 516.921,-499.488 510.169,-501.335"/>
<text text-anchor="middle" x="526.504" y="-441.71" font-family="Times,serif" font-size="8.00">der</text>
</g>
<!-- http://urbanobservatory.ac.uk/View1&#45;&gt;http://urbanobservatory.ac.uk/Camera1 -->
<g id="edge14" class="edge"><title>http://urbanobservatory.ac.uk/View1&#45;&gt;http://urbanobservatory.ac.uk/Camera1</title>
<path fill="none" stroke="black" d="M525.938,-434.031C524.027,-451.389 523.739,-478.575 525.074,-498.895"/>
<polygon fill="black" stroke="black" points="521.606,-499.425 525.951,-509.088 528.58,-498.825 521.606,-499.425"/>
<text text-anchor="middle" x="538.155" y="-440.834" font-family="Times,serif" font-size="8.00">der</text>
</g>
<!-- http://urbanobservatory.ac.uk/View1&#45;&gt;http://urbanobservatory.ac.uk/Camera1 -->
<g id="edge21" class="edge"><title>http://urbanobservatory.ac.uk/View1&#45;&gt;http://urbanobservatory.ac.uk/Camera1</title>
<path fill="none" stroke="black" d="M536.062,-434.031C537.973,-451.389 538.261,-478.575 536.926,-498.895"/>
<polygon fill="black" stroke="black" points="533.42,-498.825 536.049,-509.088 540.394,-499.425 533.42,-498.825"/>
<text text-anchor="middle" x="549.708" y="-438.361" font-family="Times,serif" font-size="8.00">der</text>
</g>
<!-- http://urbanobservatory.ac.uk/View1&#45;&gt;http://urbanobservatory.ac.uk/Camera1 -->
<g id="edge28" class="edge"><title>http://urbanobservatory.ac.uk/View1&#45;&gt;http://urbanobservatory.ac.uk/Camera1</title>
<path fill="none" stroke="black" d="M545.702,-432.617C551.997,-450.242 552.935,-479.189 548.516,-500.188"/>
<polygon fill="black" stroke="black" points="545.079,-499.488 545.817,-510.057 551.831,-501.335 545.079,-499.488"/>
<text text-anchor="middle" x="560.325" y="-434.059" font-family="Times,serif" font-size="8.00">der</text>
</g>
<!-- &#45;attrs1 -->
<g id="node4" class="node"><title>&#45;attrs1</title>
<polygon fill="none" stroke="gray" points="559.5,-323 506.5,-323 506.5,-287 565.5,-287 565.5,-317 559.5,-323"/>
<polyline fill="none" stroke="gray" points="559.5,-323 559.5,-317 "/>
<polyline fill="none" stroke="gray" points="565.5,-317 559.5,-317 "/>
<text text-anchor="start" x="517" y="-309" font-family="Times,serif" font-size="10.00">value:</text>
<text text-anchor="start" x="545" y="-309" font-family="Times,serif" font-size="10.00">50</text>
<text text-anchor="start" x="517" y="-296" font-family="Times,serif" font-size="10.00">value:</text>
<text text-anchor="start" x="545" y="-296" font-family="Times,serif" font-size="10.00">30</text>
</g>
<!-- &#45;attrs1&#45;&gt;http://urbanobservatory.ac.uk/View1 -->
<g id="edge2" class="edge"><title>&#45;attrs1&#45;&gt;http://urbanobservatory.ac.uk/View1</title>
<path fill="none" stroke="gray" stroke-dasharray="5,2" d="M535.219,-323.031C534.285,-343.389 532.731,-377.265 531.792,-397.729"/>
</g>
<!-- http://urbanobservatory.ac.uk/Image2 -->
<g id="node5" class="node"><title>http://urbanobservatory.ac.uk/Image2</title>
<g id="a_node5"><a xlink:href="http://urbanobservatory.ac.uk/Image2" xlink:title="Image2">
<ellipse fill="#fffc87" stroke="#808080" cx="393" cy="-220" rx="37.8943" ry="18"/>
<text text-anchor="middle" x="393" y="-216.3" font-family="Times,serif" font-size="14.00">Image2</text>
</a>
</g>
</g>
<!-- http://urbanobservatory.ac.uk/Image2&#45;&gt;http://urbanobservatory.ac.uk/Acquisition2 -->
<g id="edge6" class="edge"><title>http://urbanobservatory.ac.uk/Image2&#45;&gt;http://urbanobservatory.ac.uk/Acquisition2</title>
<path fill="none" stroke="black" d="M403.274,-237.398C410.536,-248.991 420.421,-264.769 428.747,-278.058"/>
<polygon fill="black" stroke="black" points="425.936,-280.163 434.211,-286.779 431.868,-276.446 425.936,-280.163"/>
<text text-anchor="middle" x="418.264" y="-234.957" font-family="Times,serif" font-size="8.00">gen</text>
</g>
<!-- &#45;attrs2 -->
<g id="node6" class="node"><title>&#45;attrs2</title>
<polygon fill="none" stroke="gray" points="438,-114 346,-114 346,-78 444,-78 444,-108 438,-114"/>
<polyline fill="none" stroke="gray" points="438,-114 438,-108 "/>
<polyline fill="none" stroke="gray" points="444,-108 438,-108 "/>
<text text-anchor="start" x="356" y="-93" font-family="Times,serif" font-size="10.00">value:</text>
<text text-anchor="start" x="384" y="-93" font-family="Times,serif" font-size="10.00">A22222.jpg</text>
</g>
<!-- &#45;attrs2&#45;&gt;http://urbanobservatory.ac.uk/Image2 -->
<g id="edge3" class="edge"><title>&#45;attrs2&#45;&gt;http://urbanobservatory.ac.uk/Image2</title>
<path fill="none" stroke="gray" stroke-dasharray="5,2" d="M394.718,-114.221C394.337,-137.472 393.661,-178.66 393.281,-201.867"/>
</g>
<!-- &#45;attrs3 -->
<g id="node8" class="node"><title>&#45;attrs3</title>
<polygon fill="none" stroke="gray" points="473,-473 367,-473 367,-359 479,-359 479,-467 473,-473"/>
<polyline fill="none" stroke="gray" points="473,-473 473,-467 "/>
<polyline fill="none" stroke="gray" points="479,-467 473,-467 "/>
<text text-anchor="start" x="377" y="-459" font-family="Times,serif" font-size="10.00">value:</text>
<text text-anchor="start" x="405" y="-459" font-family="Times,serif" font-size="10.00">JVC321634</text>
<text text-anchor="start" x="377" y="-446" font-family="Times,serif" font-size="10.00">value:</text>
<text text-anchor="start" x="405" y="-446" font-family="Times,serif" font-size="10.00">Newcastle</text>
<text text-anchor="start" x="377" y="-433" font-family="Times,serif" font-size="10.00">value:</text>
<text text-anchor="start" x="405" y="-433" font-family="Times,serif" font-size="10.00">28mm</text>
<text text-anchor="start" x="377" y="-420" font-family="Times,serif" font-size="10.00">value:</text>
<text text-anchor="start" x="405" y="-420" font-family="Times,serif" font-size="10.00">IdontKnow</text>
<text text-anchor="start" x="377" y="-407" font-family="Times,serif" font-size="10.00">value:</text>
<text text-anchor="start" x="405" y="-407" font-family="Times,serif" font-size="10.00">Westgate Street</text>
<text text-anchor="start" x="377" y="-394" font-family="Times,serif" font-size="10.00">value:</text>
<text text-anchor="start" x="405" y="-394" font-family="Times,serif" font-size="10.00">14/06/2016</text>
<text text-anchor="start" x="377" y="-381" font-family="Times,serif" font-size="10.00">value:</text>
<text text-anchor="start" x="405" y="-381" font-family="Times,serif" font-size="10.00">install_height</text>
<text text-anchor="start" x="377" y="-368" font-family="Times,serif" font-size="10.00">value:</text>
<text text-anchor="start" x="405" y="-368" font-family="Times,serif" font-size="10.00">North</text>
</g>
<!-- &#45;attrs3&#45;&gt;http://urbanobservatory.ac.uk/Camera1 -->
<g id="edge4" class="edge"><title>&#45;attrs3&#45;&gt;http://urbanobservatory.ac.uk/Camera1</title>
<path fill="none" stroke="gray" stroke-dasharray="5,2" d="M478.582,-473.096C492.02,-486.659 505.327,-500.089 515.171,-510.025"/>
</g>
<!-- http://urbanobservatory.ac.uk/Acquisition1 -->
<g id="node9" class="node"><title>http://urbanobservatory.ac.uk/Acquisition1</title>
<g id="a_node9"><a xlink:href="http://urbanobservatory.ac.uk/Acquisition1" xlink:title="Acquisition1">
<polygon fill="#9fb1fc" stroke="#0000ff" points="713,-323 627,-323 627,-287 713,-287 713,-323"/>
<text text-anchor="middle" x="670" y="-301.3" font-family="Times,serif" font-size="14.00">Acquisition1</text>
</a>
</g>
</g>
<!-- http://urbanobservatory.ac.uk/Acquisition1&#45;&gt;http://urbanobservatory.ac.uk/View1 -->
<g id="edge12" class="edge"><title>http://urbanobservatory.ac.uk/Acquisition1&#45;&gt;http://urbanobservatory.ac.uk/View1</title>
<path fill="none" stroke="black" d="M648.281,-323.031C623.753,-342.265 583.837,-373.567 557.496,-394.222"/>
<polygon fill="black" stroke="black" points="555.167,-391.601 549.458,-400.526 559.487,-397.109 555.167,-391.601"/>
<text text-anchor="middle" x="650.395" y="-335.982" font-family="Times,serif" font-size="8.00">use</text>
</g>
<!-- &#45;attrs4 -->
<g id="node10" class="node"><title>&#45;attrs4</title>
<polygon fill="none" stroke="gray" points="840,-251 724,-251 724,-189 846,-189 846,-245 840,-251"/>
<polyline fill="none" stroke="gray" points="840,-251 840,-245 "/>
<polyline fill="none" stroke="gray" points="846,-245 840,-245 "/>
<text text-anchor="start" x="734" y="-237" font-family="Times,serif" font-size="10.00">value:</text>
<text text-anchor="start" x="762" y="-237" font-family="Times,serif" font-size="10.00">20180101120100</text>
<text text-anchor="start" x="734" y="-224" font-family="Times,serif" font-size="10.00">value:</text>
<text text-anchor="start" x="762" y="-224" font-family="Times,serif" font-size="10.00">1024x768</text>
<text text-anchor="start" x="734" y="-211" font-family="Times,serif" font-size="10.00">value:</text>
<text text-anchor="start" x="762" y="-211" font-family="Times,serif" font-size="10.00">256</text>
<text text-anchor="start" x="734" y="-198" font-family="Times,serif" font-size="10.00">value:</text>
<text text-anchor="start" x="762" y="-198" font-family="Times,serif" font-size="10.00">0.9</text>
</g>
<!-- &#45;attrs4&#45;&gt;http://urbanobservatory.ac.uk/Acquisition1 -->
<g id="edge8" class="edge"><title>&#45;attrs4&#45;&gt;http://urbanobservatory.ac.uk/Acquisition1</title>
<path fill="none" stroke="gray" stroke-dasharray="5,2" d="M743.157,-251.2C726.459,-263.251 707.855,-276.678 693.586,-286.977"/>
</g>
<!-- &#45;attrs5 -->
<g id="node11" class="node"><title>&#45;attrs5</title>
<polygon fill="none" stroke="gray" points="897.5,-114 844.5,-114 844.5,-78 903.5,-78 903.5,-108 897.5,-114"/>
<polyline fill="none" stroke="gray" points="897.5,-114 897.5,-108 "/>
<polyline fill="none" stroke="gray" points="903.5,-108 897.5,-108 "/>
<text text-anchor="start" x="855" y="-100" font-family="Times,serif" font-size="10.00">value:</text>
<text text-anchor="start" x="883" y="-100" font-family="Times,serif" font-size="10.00">50</text>
<text text-anchor="start" x="855" y="-87" font-family="Times,serif" font-size="10.00">value:</text>
<text text-anchor="start" x="883" y="-87" font-family="Times,serif" font-size="10.00">30</text>
</g>
<!-- &#45;attrs5&#45;&gt;http://urbanobservatory.ac.uk/View1 -->
<g id="edge9" class="edge"><title>&#45;attrs5&#45;&gt;http://urbanobservatory.ac.uk/View1</title>
<path fill="none" stroke="gray" stroke-dasharray="5,2" d="M876.476,-114.35C879.872,-144.711 882.732,-208.301 855,-251 787.179,-355.423 631.163,-396.335 563.4,-409.581"/>
</g>
<!-- http://urbanobservatory.ac.uk/Image1 -->
<g id="node12" class="node"><title>http://urbanobservatory.ac.uk/Image1</title>
<g id="a_node12"><a xlink:href="http://urbanobservatory.ac.uk/Image1" xlink:title="Image1">
<ellipse fill="#fffc87" stroke="#808080" cx="668" cy="-220" rx="37.8943" ry="18"/>
<text text-anchor="middle" x="668" y="-216.3" font-family="Times,serif" font-size="14.00">Image1</text>
</a>
</g>
</g>
<!-- http://urbanobservatory.ac.uk/Image1&#45;&gt;http://urbanobservatory.ac.uk/Acquisition1 -->
<g id="edge13" class="edge"><title>http://urbanobservatory.ac.uk/Image1&#45;&gt;http://urbanobservatory.ac.uk/Acquisition1</title>
<path fill="none" stroke="black" d="M668.414,-238.198C668.683,-249.326 669.037,-264.055 669.344,-276.756"/>
<polygon fill="black" stroke="black" points="665.846,-276.912 669.586,-286.824 672.844,-276.743 665.846,-276.912"/>
<text text-anchor="middle" x="681.582" y="-243.483" font-family="Times,serif" font-size="8.00">gen</text>
</g>
<!-- &#45;attrs6 -->
<g id="node13" class="node"><title>&#45;attrs6</title>
<polygon fill="none" stroke="gray" points="820,-114 728,-114 728,-78 826,-78 826,-108 820,-114"/>
<polyline fill="none" stroke="gray" points="820,-114 820,-108 "/>
<polyline fill="none" stroke="gray" points="826,-108 820,-108 "/>
<text text-anchor="start" x="738" y="-93" font-family="Times,serif" font-size="10.00">value:</text>
<text text-anchor="start" x="766" y="-93" font-family="Times,serif" font-size="10.00">A11111.jpg</text>
</g>
<!-- &#45;attrs6&#45;&gt;http://urbanobservatory.ac.uk/Image1 -->
<g id="edge10" class="edge"><title>&#45;attrs6&#45;&gt;http://urbanobservatory.ac.uk/Image1</title>
<path fill="none" stroke="gray" stroke-dasharray="5,2" d="M761.614,-114.221C740.488,-137.867 702.789,-180.062 682.267,-203.031"/>
</g>
<!-- &#45;attrs7 -->
<g id="node14" class="node"><title>&#45;attrs7</title>
<polygon fill="none" stroke="gray" points="704,-153 598,-153 598,-39 710,-39 710,-147 704,-153"/>
<polyline fill="none" stroke="gray" points="704,-153 704,-147 "/>
<polyline fill="none" stroke="gray" points="710,-147 704,-147 "/>
<text text-anchor="start" x="608" y="-139" font-family="Times,serif" font-size="10.00">value:</text>
<text text-anchor="start" x="636" y="-139" font-family="Times,serif" font-size="10.00">JVC321634</text>
<text text-anchor="start" x="608" y="-126" font-family="Times,serif" font-size="10.00">value:</text>
<text text-anchor="start" x="636" y="-126" font-family="Times,serif" font-size="10.00">Newcastle</text>
<text text-anchor="start" x="608" y="-113" font-family="Times,serif" font-size="10.00">value:</text>
<text text-anchor="start" x="636" y="-113" font-family="Times,serif" font-size="10.00">28mm</text>
<text text-anchor="start" x="608" y="-100" font-family="Times,serif" font-size="10.00">value:</text>
<text text-anchor="start" x="636" y="-100" font-family="Times,serif" font-size="10.00">IdontKnow</text>
<text text-anchor="start" x="608" y="-87" font-family="Times,serif" font-size="10.00">value:</text>
<text text-anchor="start" x="636" y="-87" font-family="Times,serif" font-size="10.00">Westgate Street</text>
<text text-anchor="start" x="608" y="-74" font-family="Times,serif" font-size="10.00">value:</text>
<text text-anchor="start" x="636" y="-74" font-family="Times,serif" font-size="10.00">14/06/2016</text>
<text text-anchor="start" x="608" y="-61" font-family="Times,serif" font-size="10.00">value:</text>
<text text-anchor="start" x="636" y="-61" font-family="Times,serif" font-size="10.00">install_height</text>
<text text-anchor="start" x="608" y="-48" font-family="Times,serif" font-size="10.00">value:</text>
<text text-anchor="start" x="636" y="-48" font-family="Times,serif" font-size="10.00">North</text>
</g>
<!-- &#45;attrs7&#45;&gt;http://urbanobservatory.ac.uk/Camera1 -->
<g id="edge11" class="edge"><title>&#45;attrs7&#45;&gt;http://urbanobservatory.ac.uk/Camera1</title>
<path fill="none" stroke="gray" stroke-dasharray="5,2" d="M631.954,-153.427C627.917,-165.07 624.03,-177.339 621,-189 588.827,-312.828 626.496,-356.327 574,-473 567.68,-487.047 556.69,-500.495 547.403,-510.33"/>
</g>
<!-- http://urbanobservatory.ac.uk/Acquisition4 -->
<g id="node15" class="node"><title>http://urbanobservatory.ac.uk/Acquisition4</title>
<g id="a_node15"><a xlink:href="http://urbanobservatory.ac.uk/Acquisition4" xlink:title="Acquisition4">
<polygon fill="#9fb1fc" stroke="#0000ff" points="1044,-323 958,-323 958,-287 1044,-287 1044,-323"/>
<text text-anchor="middle" x="1001" y="-301.3" font-family="Times,serif" font-size="14.00">Acquisition4</text>
</a>
</g>
</g>
<!-- http://urbanobservatory.ac.uk/Acquisition4&#45;&gt;http://urbanobservatory.ac.uk/View1 -->
<g id="edge19" class="edge"><title>http://urbanobservatory.ac.uk/Acquisition4&#45;&gt;http://urbanobservatory.ac.uk/View1</title>
<path fill="none" stroke="black" d="M965.261,-323.053C958.309,-325.975 951.004,-328.78 944,-331 812.268,-372.761 650.117,-398.623 574.132,-409.315"/>
<polygon fill="black" stroke="black" points="573.417,-405.881 563.994,-410.724 574.38,-412.814 573.417,-405.881"/>
<text text-anchor="middle" x="963.331" y="-336.028" font-family="Times,serif" font-size="8.00">use</text>
</g>
<!-- &#45;attrs8 -->
<g id="node16" class="node"><title>&#45;attrs8</title>
<polygon fill="none" stroke="gray" points="1168,-251 1052,-251 1052,-189 1174,-189 1174,-245 1168,-251"/>
<polyline fill="none" stroke="gray" points="1168,-251 1168,-245 "/>
<polyline fill="none" stroke="gray" points="1174,-245 1168,-245 "/>
<text text-anchor="start" x="1062" y="-237" font-family="Times,serif" font-size="10.00">value:</text>
<text text-anchor="start" x="1090" y="-237" font-family="Times,serif" font-size="10.00">20180101120300</text>
<text text-anchor="start" x="1062" y="-224" font-family="Times,serif" font-size="10.00">value:</text>
<text text-anchor="start" x="1090" y="-224" font-family="Times,serif" font-size="10.00">1024x768</text>
<text text-anchor="start" x="1062" y="-211" font-family="Times,serif" font-size="10.00">value:</text>
<text text-anchor="start" x="1090" y="-211" font-family="Times,serif" font-size="10.00">256</text>
<text text-anchor="start" x="1062" y="-198" font-family="Times,serif" font-size="10.00">value:</text>
<text text-anchor="start" x="1090" y="-198" font-family="Times,serif" font-size="10.00">0.9</text>
</g>
<!-- &#45;attrs8&#45;&gt;http://urbanobservatory.ac.uk/Acquisition4 -->
<g id="edge15" class="edge"><title>&#45;attrs8&#45;&gt;http://urbanobservatory.ac.uk/Acquisition4</title>
<path fill="none" stroke="gray" stroke-dasharray="5,2" d="M1072.25,-251.2C1055.99,-263.251 1037.87,-276.678 1023.97,-286.977"/>
</g>
<!-- &#45;attrs9 -->
<g id="node17" class="node"><title>&#45;attrs9</title>
<polygon fill="none" stroke="gray" points="981.5,-114 928.5,-114 928.5,-78 987.5,-78 987.5,-108 981.5,-114"/>
<polyline fill="none" stroke="gray" points="981.5,-114 981.5,-108 "/>
<polyline fill="none" stroke="gray" points="987.5,-108 981.5,-108 "/>
<text text-anchor="start" x="939" y="-100" font-family="Times,serif" font-size="10.00">value:</text>
<text text-anchor="start" x="967" y="-100" font-family="Times,serif" font-size="10.00">50</text>
<text text-anchor="start" x="939" y="-87" font-family="Times,serif" font-size="10.00">value:</text>
<text text-anchor="start" x="967" y="-87" font-family="Times,serif" font-size="10.00">30</text>
</g>
<!-- &#45;attrs9&#45;&gt;http://urbanobservatory.ac.uk/View1 -->
<g id="edge16" class="edge"><title>&#45;attrs9&#45;&gt;http://urbanobservatory.ac.uk/View1</title>
<path fill="none" stroke="gray" stroke-dasharray="5,2" d="M956.007,-114.329C949.932,-165.817 931.142,-315.284 916,-331 867.347,-381.499 649.733,-404.986 564.959,-412.339"/>
</g>
<!-- http://urbanobservatory.ac.uk/Image4 -->
<g id="node18" class="node"><title>http://urbanobservatory.ac.uk/Image4</title>
<g id="a_node18"><a xlink:href="http://urbanobservatory.ac.uk/Image4" xlink:title="Image4">
<ellipse fill="#fffc87" stroke="#808080" cx="996" cy="-220" rx="37.8943" ry="18"/>
<text text-anchor="middle" x="996" y="-216.3" font-family="Times,serif" font-size="14.00">Image4</text>
</a>
</g>
</g>
<!-- http://urbanobservatory.ac.uk/Image4&#45;&gt;http://urbanobservatory.ac.uk/Acquisition4 -->
<g id="edge20" class="edge"><title>http://urbanobservatory.ac.uk/Image4&#45;&gt;http://urbanobservatory.ac.uk/Acquisition4</title>
<path fill="none" stroke="black" d="M997.036,-238.198C997.706,-249.326 998.594,-264.055 999.359,-276.756"/>
<polygon fill="black" stroke="black" points="995.87,-277.053 999.965,-286.824 1002.86,-276.632 995.87,-277.053"/>
<text text-anchor="middle" x="1010.45" y="-243.003" font-family="Times,serif" font-size="8.00">gen</text>
</g>
<!-- &#45;attrs10 -->
<g id="node19" class="node"><title>&#45;attrs10</title>
<polygon fill="none" stroke="gray" points="1098,-114 1006,-114 1006,-78 1104,-78 1104,-108 1098,-114"/>
<polyline fill="none" stroke="gray" points="1098,-114 1098,-108 "/>
<polyline fill="none" stroke="gray" points="1104,-108 1098,-108 "/>
<text text-anchor="start" x="1016" y="-93" font-family="Times,serif" font-size="10.00">value:</text>
<text text-anchor="start" x="1044" y="-93" font-family="Times,serif" font-size="10.00">A44444.jpg</text>
</g>
<!-- &#45;attrs10&#45;&gt;http://urbanobservatory.ac.uk/Image4 -->
<g id="edge17" class="edge"><title>&#45;attrs10&#45;&gt;http://urbanobservatory.ac.uk/Image4</title>
<path fill="none" stroke="gray" stroke-dasharray="5,2" d="M1046.67,-114.221C1035.36,-137.604 1015.28,-179.126 1004.1,-202.258"/>
</g>
<!-- &#45;attrs11 -->
<g id="node20" class="node"><title>&#45;attrs11</title>
<polygon fill="none" stroke="gray" points="1228,-153 1122,-153 1122,-39 1234,-39 1234,-147 1228,-153"/>
<polyline fill="none" stroke="gray" points="1228,-153 1228,-147 "/>
<polyline fill="none" stroke="gray" points="1234,-147 1228,-147 "/>
<text text-anchor="start" x="1132" y="-139" font-family="Times,serif" font-size="10.00">value:</text>
<text text-anchor="start" x="1160" y="-139" font-family="Times,serif" font-size="10.00">JVC321634</text>
<text text-anchor="start" x="1132" y="-126" font-family="Times,serif" font-size="10.00">value:</text>
<text text-anchor="start" x="1160" y="-126" font-family="Times,serif" font-size="10.00">Newcastle</text>
<text text-anchor="start" x="1132" y="-113" font-family="Times,serif" font-size="10.00">value:</text>
<text text-anchor="start" x="1160" y="-113" font-family="Times,serif" font-size="10.00">28mm</text>
<text text-anchor="start" x="1132" y="-100" font-family="Times,serif" font-size="10.00">value:</text>
<text text-anchor="start" x="1160" y="-100" font-family="Times,serif" font-size="10.00">IdontKnow</text>
<text text-anchor="start" x="1132" y="-87" font-family="Times,serif" font-size="10.00">value:</text>
<text text-anchor="start" x="1160" y="-87" font-family="Times,serif" font-size="10.00">Westgate Street</text>
<text text-anchor="start" x="1132" y="-74" font-family="Times,serif" font-size="10.00">value:</text>
<text text-anchor="start" x="1160" y="-74" font-family="Times,serif" font-size="10.00">14/06/2016</text>
<text text-anchor="start" x="1132" y="-61" font-family="Times,serif" font-size="10.00">value:</text>
<text text-anchor="start" x="1160" y="-61" font-family="Times,serif" font-size="10.00">install_height</text>
<text text-anchor="start" x="1132" y="-48" font-family="Times,serif" font-size="10.00">value:</text>
<text text-anchor="start" x="1160" y="-48" font-family="Times,serif" font-size="10.00">North</text>
</g>
<!-- &#45;attrs11&#45;&gt;http://urbanobservatory.ac.uk/Camera1 -->
<g id="edge18" class="edge"><title>&#45;attrs11&#45;&gt;http://urbanobservatory.ac.uk/Camera1</title>
<path fill="none" stroke="gray" stroke-dasharray="5,2" d="M1193.28,-153.042C1198.49,-183.811 1199.44,-221.577 1183,-251 1056.85,-476.747 697.328,-517.179 573.513,-524.42"/>
</g>
<!-- http://urbanobservatory.ac.uk/Acquisition3 -->
<g id="node21" class="node"><title>http://urbanobservatory.ac.uk/Acquisition3</title>
<g id="a_node21"><a xlink:href="http://urbanobservatory.ac.uk/Acquisition3" xlink:title="Acquisition3">
<polygon fill="#9fb1fc" stroke="#0000ff" points="304,-323 218,-323 218,-287 304,-287 304,-323"/>
<text text-anchor="middle" x="261" y="-301.3" font-family="Times,serif" font-size="14.00">Acquisition3</text>
</a>
</g>
</g>
<!-- http://urbanobservatory.ac.uk/Acquisition3&#45;&gt;http://urbanobservatory.ac.uk/View1 -->
<g id="edge26" class="edge"><title>http://urbanobservatory.ac.uk/Acquisition3&#45;&gt;http://urbanobservatory.ac.uk/View1</title>
<path fill="none" stroke="black" d="M304.294,-322.021C313.986,-325.272 324.277,-328.467 334,-331 401.319,-348.541 428.617,-322.763 488,-359 500.137,-366.406 510.103,-378.597 517.374,-389.717"/>
<polygon fill="black" stroke="black" points="514.415,-391.587 522.617,-398.293 520.387,-387.936 514.415,-391.587"/>
<text text-anchor="middle" x="315.511" y="-310.162" font-family="Times,serif" font-size="8.00">use</text>
</g>
<!-- &#45;attrs12 -->
<g id="node22" class="node"><title>&#45;attrs12</title>
<polygon fill="none" stroke="gray" points="316,-251 200,-251 200,-189 322,-189 322,-245 316,-251"/>
<polyline fill="none" stroke="gray" points="316,-251 316,-245 "/>
<polyline fill="none" stroke="gray" points="322,-245 316,-245 "/>
<text text-anchor="start" x="210" y="-237" font-family="Times,serif" font-size="10.00">value:</text>
<text text-anchor="start" x="238" y="-237" font-family="Times,serif" font-size="10.00">20180101120200</text>
<text text-anchor="start" x="210" y="-224" font-family="Times,serif" font-size="10.00">value:</text>
<text text-anchor="start" x="238" y="-224" font-family="Times,serif" font-size="10.00">1024x768</text>
<text text-anchor="start" x="210" y="-211" font-family="Times,serif" font-size="10.00">value:</text>
<text text-anchor="start" x="238" y="-211" font-family="Times,serif" font-size="10.00">256</text>
<text text-anchor="start" x="210" y="-198" font-family="Times,serif" font-size="10.00">value:</text>
<text text-anchor="start" x="238" y="-198" font-family="Times,serif" font-size="10.00">0.9</text>
</g>
<!-- &#45;attrs12&#45;&gt;http://urbanobservatory.ac.uk/Acquisition3 -->
<g id="edge22" class="edge"><title>&#45;attrs12&#45;&gt;http://urbanobservatory.ac.uk/Acquisition3</title>
<path fill="none" stroke="gray" stroke-dasharray="5,2" d="M261,-251.435C261,-263.279 261,-276.42 261,-286.6"/>
</g>
<!-- &#45;attrs13 -->
<g id="node23" class="node"><title>&#45;attrs13</title>
<polygon fill="none" stroke="gray" points="199.5,-114 146.5,-114 146.5,-78 205.5,-78 205.5,-108 199.5,-114"/>
<polyline fill="none" stroke="gray" points="199.5,-114 199.5,-108 "/>
<polyline fill="none" stroke="gray" points="205.5,-108 199.5,-108 "/>
<text text-anchor="start" x="157" y="-100" font-family="Times,serif" font-size="10.00">value:</text>
<text text-anchor="start" x="185" y="-100" font-family="Times,serif" font-size="10.00">50</text>
<text text-anchor="start" x="157" y="-87" font-family="Times,serif" font-size="10.00">value:</text>
<text text-anchor="start" x="185" y="-87" font-family="Times,serif" font-size="10.00">30</text>
</g>
<!-- &#45;attrs13&#45;&gt;http://urbanobservatory.ac.uk/View1 -->
<g id="edge23" class="edge"><title>&#45;attrs13&#45;&gt;http://urbanobservatory.ac.uk/View1</title>
<path fill="none" stroke="gray" stroke-dasharray="5,2" d="M165.354,-114.415C158.003,-125.87 147.663,-140.92 137,-153 121.173,-170.932 106.731,-167.151 97,-189 85.7893,-214.172 84.3911,-226.498 97,-251 124.991,-305.392 151.752,-309.443 209,-331 325.628,-374.917 379.114,-298.38 488,-359 503.851,-367.824 515.746,-385.162 522.961,-398.221"/>
</g>
<!-- http://urbanobservatory.ac.uk/Image3 -->
<g id="node24" class="node"><title>http://urbanobservatory.ac.uk/Image3</title>
<g id="a_node24"><a xlink:href="http://urbanobservatory.ac.uk/Image3" xlink:title="Image3">
<ellipse fill="#fffc87" stroke="#808080" cx="144" cy="-220" rx="37.8943" ry="18"/>
<text text-anchor="middle" x="144" y="-216.3" font-family="Times,serif" font-size="14.00">Image3</text>
</a>
</g>
</g>
<!-- http://urbanobservatory.ac.uk/Image3&#45;&gt;http://urbanobservatory.ac.uk/Acquisition3 -->
<g id="edge27" class="edge"><title>http://urbanobservatory.ac.uk/Image3&#45;&gt;http://urbanobservatory.ac.uk/Acquisition3</title>
<path fill="none" stroke="black" d="M164.113,-235.268C181.8,-247.815 207.868,-266.308 228.51,-280.952"/>
<polygon fill="black" stroke="black" points="226.516,-283.828 236.698,-286.76 230.567,-278.119 226.516,-283.828"/>
<text text-anchor="middle" x="177.746" y="-227.113" font-family="Times,serif" font-size="8.00">gen</text>
</g>
<!-- &#45;attrs14 -->
<g id="node25" class="node"><title>&#45;attrs14</title>
<polygon fill="none" stroke="gray" points="316,-114 224,-114 224,-78 322,-78 322,-108 316,-114"/>
<polyline fill="none" stroke="gray" points="316,-114 316,-108 "/>
<polyline fill="none" stroke="gray" points="322,-108 316,-108 "/>
<text text-anchor="start" x="234" y="-93" font-family="Times,serif" font-size="10.00">value:</text>
<text text-anchor="start" x="262" y="-93" font-family="Times,serif" font-size="10.00">A33333.jpg</text>
</g>
<!-- &#45;attrs14&#45;&gt;http://urbanobservatory.ac.uk/Image3 -->
<g id="edge24" class="edge"><title>&#45;attrs14&#45;&gt;http://urbanobservatory.ac.uk/Image3</title>
<path fill="none" stroke="gray" stroke-dasharray="5,2" d="M254.939,-114.172C243.268,-125.261 227.747,-139.995 214,-153 195.678,-170.333 174.616,-190.181 160.421,-203.546"/>
</g>
<!-- &#45;attrs15 -->
<g id="node26" class="node"><title>&#45;attrs15</title>
<polygon fill="none" stroke="gray" points="122,-153 16,-153 16,-39 128,-39 128,-147 122,-153"/>
<polyline fill="none" stroke="gray" points="122,-153 122,-147 "/>
<polyline fill="none" stroke="gray" points="128,-147 122,-147 "/>
<text text-anchor="start" x="26" y="-139" font-family="Times,serif" font-size="10.00">value:</text>
<text text-anchor="start" x="54" y="-139" font-family="Times,serif" font-size="10.00">JVC321634</text>
<text text-anchor="start" x="26" y="-126" font-family="Times,serif" font-size="10.00">value:</text>
<text text-anchor="start" x="54" y="-126" font-family="Times,serif" font-size="10.00">Newcastle</text>
<text text-anchor="start" x="26" y="-113" font-family="Times,serif" font-size="10.00">value:</text>
<text text-anchor="start" x="54" y="-113" font-family="Times,serif" font-size="10.00">28mm</text>
<text text-anchor="start" x="26" y="-100" font-family="Times,serif" font-size="10.00">value:</text>
<text text-anchor="start" x="54" y="-100" font-family="Times,serif" font-size="10.00">IdontKnow</text>
<text text-anchor="start" x="26" y="-87" font-family="Times,serif" font-size="10.00">value:</text>
<text text-anchor="start" x="54" y="-87" font-family="Times,serif" font-size="10.00">Westgate Street</text>
<text text-anchor="start" x="26" y="-74" font-family="Times,serif" font-size="10.00">value:</text>
<text text-anchor="start" x="54" y="-74" font-family="Times,serif" font-size="10.00">14/06/2016</text>
<text text-anchor="start" x="26" y="-61" font-family="Times,serif" font-size="10.00">value:</text>
<text text-anchor="start" x="54" y="-61" font-family="Times,serif" font-size="10.00">install_height</text>
<text text-anchor="start" x="26" y="-48" font-family="Times,serif" font-size="10.00">value:</text>
<text text-anchor="start" x="54" y="-48" font-family="Times,serif" font-size="10.00">North</text>
</g>
<!-- &#45;attrs15&#45;&gt;http://urbanobservatory.ac.uk/Camera1 -->
<g id="edge25" class="edge"><title>&#45;attrs15&#45;&gt;http://urbanobservatory.ac.uk/Camera1</title>
<path fill="none" stroke="gray" stroke-dasharray="5,2" d="M68.4404,-153.442C68.2612,-205.594 76.3241,-282.174 119,-331 221.984,-448.826 411.705,-500.976 492.71,-518.608"/>
</g>
</g>
</svg>
